<?xml version="1.0" encoding="UTF-8"?>
<svg version="1.1" viewBox="0 0 1337 1337" width="1280" height="1280" xmlns="http://www.w3.org/2000/svg">
<path transform="translate(0)" d="m0 0h1337v1337h-1337z" fill="#212332"/>
<path transform="translate(632,346)" d="m0 0 32 1 28 3 34 6 29 7 28 7 19 3h9l15-3 16-7 12-6 10 5 2 7v4l3-3 6 2 17 9 4 13v6l-11 19-12 22-17 35-13 28-11 23-7 12-6 8-9-3-11-5-4-8v-2l-12-1-10-2-4-9-8-24-6 2-3-2v-2h-2l-7-8-7-7-14-11-14-9-14-7-16-5-20-3-18 1-16 4-12 7-10 9-4 5-6 12-2 9v16l5 13 8 12 13 14 14 11 2 3 2 9v4l7 1 87 21 28 8 24 9 27 13 17 11 12 9 11 10 17-8 4 1 11 9 14 14 12 16 9 16 7 16 6 21 3 17 1 14v20l-2 21-4 20-5 17-8 18-7 14-10 15-10 13-14 15-8 8-11 9-13 10-19 12-16 8-16 7-25 8-24 5-16 2-19 1h-19l-34-2-27-4-27-6-61-15-14-3-18-2h-30l-15 3-11 4h-6l-13-5-7-15-3-10 4-3-11-3-6-9v-8l8-12 13-21 10-17 17-32 11-24 10-26 9-27 3-8 8 1 20 6 4 24 2 8 10-15 21-4 4 1 6 25 5 15 8 17 12 18 12 13 12 10 18 11 16 8 1 9 20 2h26l19-2 21-5 13-5 15-8 11-9 10-11 6-10 5-14 2-10 1-16-1-14-7 4-4-2-11-12-9-9-13-9-16-8-24-8-26-7-36-9-38-9-18-5-27-8-21-7-19-8-13-7-9-7-9-8-8-11-5-10-2-6v-5l10-8-4-6-9-10-12-19-8-19-6-23-3-24v-31l3-22 6-21 7-16 9-16 12-16 18-18 18-13 14-8 16-8 24-8 24-5 18-2z" fill="#01FEFE"/>
<path transform="translate(583,424)" d="m0 0 2 1-12 11-10 14-7 16-3 14-1 15-2 1v-21l4-16 8-15 11-12z" fill="#212332"/>
</svg>
